/* XPM */
static char * tour48_xpm[] = {
"48 48 65 1",
" 	c None",
".	c #FBFBFB",
"+	c #FFFFFF",
"@	c #FCFCFC",
"#	c #F9F9F9",
"$	c #FDFDFD",
"%	c #FAFAFA",
"&	c #F7F7F7",
"*	c #F4F4F4",
"=	c #E9E9E9",
"-	c #F3F3F3",
";	c #F6F6F6",
">	c #F2F2F2",
",	c #F0F0F0",
"'	c #D7D7D7",
")	c #EEEEEE",
"!	c #E0E0E0",
"~	c #A4A4A4",
"{	c #C9C9C9",
"]	c #EBEBEB",
"^	c #C0C0C0",
"/	c #DEDEDE",
"(	c #777777",
"_	c #E6E6E6",
":	c #EDEDED",
"<	c #B0B0B0",
"[	c #D3D3D3",
"}	c #DADADA",
"|	c #919191",
"1	c #D0D0D0",
"2	c #D2D2D2",
"3	c #858585",
"4	c #D4D4D4",
"5	c #F5F5F5",
"6	c #7D7D7D",
"7	c #F1F1F1",
"8	c #EAEAEA",
"9	c #E8E8E8",
"0	c #787878",
"a	c #F8F8F8",
"b	c #959595",
"c	c #E5E5E5",
"d	c #AEAEAE",
"e	c #A8A8A8",
"f	c #C1C1C1",
"g	c #E2E2E2",
"h	c #9B9B9B",
"i	c #6C6C6C",
"j	c #9F9F9F",
"k	c #E3E3E3",
"l	c #A3A3A3",
"m	c #BDBDBD",
"n	c #E7E7E7",
"o	c #DDDDDD",
"p	c #979797",
"q	c #BCBCBC",
"r	c #CFCFCF",
"s	c #D6D6D6",
"t	c #D8D8D8",
"u	c #CCCCCC",
"v	c #C3C3C3",
"w	c #737373",
"x	c #929292",
"y	c #B3B3B3",
"z	c #EFEFEF",
"                                                ",
"                                                ",
"                                                ",
"                                                ",
"                                                ",
"                                                ",
"                                                ",
"                                                ",
"                                     .+@.#      ",
"                                    #$+$@$%     ",
"             &%*                  %$++$+++++=   ",
"          $+++++@-              @++++$$$$$++-   ",
"           ;@++++++#>,        @++++++$++++$'    ",
"             )+++++++$!     @++++++++++++*~     ",
"              {&++$]^     %$+++++++++++@/(      ",
"                _:<    [;$++++++$++++#}|        ",
"                     1*$+++++++$$++;23          ",
"                   4*$+++++++++++5{6            ",
"  $+7            8#$++++++++++++90              ",
"  $++8         a@++++++++++++++.b               ",
"  5+++]      .$++++++++++++++++c                ",
"   $+++7   .++++++++++++@$$+++$d                ",
"   *+$$+#;++++++++++++%a$$++++:                 ",
"    ++$+++++++++++++@[e9++$+++f                 ",
"    a+$$$++++++++++gh  :+++++5i                 ",
"    9+$$$++++++++cj    #+++++1                  ",
"     %++++++++$kl     m+++++a3                  ",
"     n%.++++aop        +++++/                   ",
"       qrstu|         n++++$e                   ",
"                      7++$+]                    ",
"                      *++++v                    ",
"                      &+++&w                    ",
"                      #+++'                     ",
"                      .++@x                     ",
"                      @++=                      ",
"                      $++y                      ",
"                      ++z                       ",
"                     5@_                        ",
"                                                ",
"                                                ",
"                                                ",
"                                                ",
"                                                ",
"                                                ",
"                                                ",
"                                                ",
"                                                ",
"                                                "};
