/* XPM */
static char * tour24_xpm[] = {
"24 24 38 1",
" 	c None",
".	c #FDFDFD",
"+	c #FBFBFB",
"@	c #F3F3F3",
"#	c #F2F2F2",
"$	c #FAFAFA",
"%	c #FFFFFF",
"&	c #EAEAEA",
"*	c #EBEBEB",
"=	c #F5F5F5",
"-	c #E7E7E7",
";	c #F4F4F4",
">	c #F6F6F6",
",	c #FCFCFC",
"'	c #BEBEBE",
")	c #E3E3E3",
"!	c #F0F0F0",
"~	c #F9F9F9",
"{	c #D1D1D1",
"]	c #EFEFEF",
"^	c #C6C6C6",
"/	c #EEEEEE",
"(	c #D8D8D8",
"_	c #959595",
":	c #949494",
"<	c #E6E6E6",
"[	c #ECECEC",
"}	c #A6A6A6",
"|	c #C1C1C1",
"1	c #9C9C9C",
"2	c #F1F1F1",
"3	c #A1A1A1",
"4	c #DEDEDE",
"5	c #C3C3C3",
"6	c #F7F7F7",
"7	c #DBDBDB",
"8	c #DFDFDF",
"9	c #E5E5E5",
"                        ",
"                        ",
"                        ",
"                        ",
"                   .+@  ",
"                 #$%..& ",
"    .%%$*      =.%%.%%* ",
"     -%%%;   >.%%%%%,'  ",
"       )   !%%%%%%~{    ",
"         ]%%%%%%~^      ",
"/      =%%%%%%%+        ",
"%*   $%%%%%%%%%(        ",
"%%>~%%%%%%@,%%%         ",
",%%%%%%%/_:.%%<         ",
"[%%%%%[}  |%%%1         ",
" -2>-3    4%%2          ",
"          *%%5          ",
"          2%+           ",
"          6%7           ",
"          +%            ",
"          ,8            ",
"          9             ",
"                        ",
"                        "};
