/* XPM */
static char * tour64_xpm[] = {
"64 64 75 1",
" 	c None",
".	c #FFFFFF",
"+	c #FDFDFD",
"@	c #FCFCFC",
"#	c #FAFAFA",
"$	c #EBEBEB",
"%	c #FBFBFB",
"&	c #F8F8F8",
"*	c #F0F0F0",
"=	c #EFEFEF",
"-	c #EAEAEA",
";	c #F5F5F5",
">	c #F6F6F6",
",	c #CACACA",
"'	c #F3F3F3",
")	c #DDDDDD",
"!	c #878787",
"~	c #D9D9D9",
"{	c #F9F9F9",
"]	c #F1F1F1",
"^	c #E1E1E1",
"/	c #C2C2C2",
"(	c #E5E5E5",
"_	c #F7F7F7",
":	c #A2A2A2",
"<	c #C3C3C3",
"[	c #D2D2D2",
"}	c #DEDEDE",
"|	c #9E9E9E",
"1	c #C4C4C4",
"2	c #EEEEEE",
"3	c #D3D3D3",
"4	c #919191",
"5	c #C9C9C9",
"6	c #898989",
"7	c #D8D8D8",
"8	c #BCBCBC",
"9	c #747474",
"0	c #777777",
"a	c #989898",
"b	c #DADADA",
"c	c #EDEDED",
"d	c #ACACAC",
"e	c #F4F4F4",
"f	c #E3E3E3",
"g	c #B0B0B0",
"h	c #646464",
"i	c #E9E9E9",
"j	c #5E5E5E",
"k	c #C0C0C0",
"l	c #C7C7C7",
"m	c #7A7A7A",
"n	c #858585",
"o	c #F2F2F2",
"p	c #7D7D7D",
"q	c #7B7B7B",
"r	c #B4B4B4",
"s	c #CDCDCD",
"t	c #E6E6E6",
"u	c #B8B8B8",
"v	c #737373",
"w	c #DFDFDF",
"x	c #DBDBDB",
"y	c #E4E4E4",
"z	c #B6B6B6",
"A	c #666666",
"B	c #A7A7A7",
"C	c #BEBEBE",
"D	c #CFCFCF",
"E	c #DCDCDC",
"F	c #D4D4D4",
"G	c #AFAFAF",
"H	c #787878",
"I	c #E7E7E7",
"J	c #D1D1D1",
"                                                                ",
"                                                                ",
"                                                                ",
"                                                                ",
"                                                                ",
"                                                                ",
"                                                                ",
"                                                                ",
"                                                                ",
"                                                                ",
"                                                                ",
"                                                                ",
"                                                                ",
"                                                                ",
"                                                                ",
"                                                                ",
"                                                  ..+@@#        ",
"                                                 +..++@@#       ",
"                                               ++........@$     ",
"              .+%@@+@&                       +....++...++..*    ",
"              ........@&=                 ++......++..++...-    ",
"               @+........%;=            ++.........+..+..>,     ",
"                 '+..........#        ++...............+)!      ",
"                  ~;.......{]^      %+................&/        ",
"                    (%..+'~       _+................{(:         ",
"                     <'>[       *@................_}|           ",
"                             12%...............+;34             ",
"                           5*%...............+]56               ",
"    +                    7]@................*89                 ",
"   +..;                -_..................^0                   ",
"  @...+2             {@....+..............>a                    ",
"   %...+-          ++.....................b                     ",
"    +....c       ++......................%d                     ",
"    &..+..e   '@................+++......f                      ",
"     @.++..{*{................+#@@......@g                      ",
"     _.+++..................+-b2.++.....-h                      ",
"     i+.+++................*/j!$........k                       ",
"      _.+++..............*lm  n;.......op                       ",
"      =..++............2kq    r%.......s                        ",
"       #..+.........+$/m      3+....+.e!                        ",
"       o..........%tuv        w.......x                         ",
"        ';_@...._yzA          i......{B                         ",
"          CD7xEFG             '......i                          ",
"                              _.....+/                          ",
"                              #.....*H                          ",
"                              @.+...F                           ",
"                              @....;4                           ",
"                              @....}                            ",
"                              +...#d                            ",
"                             &....I                             ",
"                             {...+k                             ",
"                             #...]                              ",
"                             @...J                              ",
"                             +.+i                               ",
"                             #&                                 ",
"                                                                ",
"                                                                ",
"                                                                ",
"                                                                ",
"                                                                ",
"                                                                ",
"                                                                ",
"                                                                ",
"                                                                "};
