/* XPM */
static char * tour32_xpm[] = {
"32 32 48 1",
" 	c None",
".	c #FFFFFF",
"+	c #FDFDFD",
"@	c #FAFAFA",
"#	c #F4F4F4",
"$	c #FBFBFB",
"%	c #F8F8F8",
"&	c #F6F6F6",
"*	c #9F9F9F",
"=	c #EEEEEE",
"-	c #F9F9F9",
";	c #EBEBEB",
">	c #DCDCDC",
",	c #CCCCCC",
"'	c #F3F3F3",
")	c #C6C6C6",
"!	c #E4E4E4",
"~	c #FCFCFC",
"{	c #E6E6E6",
"]	c #9C9C9C",
"^	c #D4D4D4",
"/	c #E5E5E5",
"(	c #989898",
"_	c #DFDFDF",
":	c #EFEFEF",
"<	c #8F8F8F",
"[	c #808080",
"}	c #DADADA",
"|	c #E8E8E8",
"1	c #F0F0F0",
"2	c #A3A3A3",
"3	c #D6D6D6",
"4	c #C0C0C0",
"5	c #919191",
"6	c #9A9A9A",
"7	c #BFBFBF",
"8	c #E7E7E7",
"9	c #CECECE",
"0	c #EDEDED",
"a	c #E2E2E2",
"b	c #D8D8D8",
"c	c #A0A0A0",
"d	c #8B8B8B",
"e	c #F2F2F2",
"f	c #949494",
"g	c #C1C1C1",
"h	c #E0E0E0",
"i	c #DDDDDD",
"                                ",
"                                ",
"                                ",
"                                ",
"                                ",
"                         .++    ",
"                        +.+.@   ",
"      .+.+#          ....+...$  ",
"      $....+%&     .........#*  ",
"        =...-;   $.........>    ",
"         ,')   !~........{]     ",
"             ^@......../(       ",
".          _@........:<         ",
"..       -+.........~[          ",
"@..}   +........++../           ",
" ...|1+........$++..2           ",
" $...........34$...1            ",
" 1.+......./5 6....7            ",
"  .......8]   9...%             ",
"  0%~.+{*     a...b             ",
"     cd       e..+f             ",
"              -..1              ",
"              ~..g              ",
"              +.@               ",
"              +.h               ",
"              ..                ",
"              +i                ",
"                                ",
"                                ",
"                                ",
"                                ",
"                                "};
