/* XPM */
static char * tour16_xpm[] = {
"16 16 29 1",
" 	c None",
".	c #FFFFFF",
"+	c #EEEEEE",
"@	c #FCFCFC",
"#	c #F5F5F5",
"$	c #FBFBFB",
"%	c #FDFDFD",
"&	c #F9F9F9",
"*	c #E6E6E6",
"=	c #F8F8F8",
"-	c #F0F0F0",
";	c #909090",
">	c #E1E1E1",
",	c #B2B2B2",
"'	c #EFEFEF",
")	c #F6F6F6",
"!	c #F4F4F4",
"~	c #EAEAEA",
"{	c #F7F7F7",
"]	c #FAFAFA",
"^	c #CDCDCD",
"/	c #E4E4E4",
"(	c #B7B7B7",
"_	c #969696",
":	c #757575",
"<	c #CECECE",
"[	c #EBEBEB",
"}	c #B3B3B3",
"|	c #E2E2E2",
"                ",
"                ",
"                ",
"             .+ ",
"    @#     $%.& ",
"    *%=  =...-; ",
"       >$..#,   ",
"@&   '$...)     ",
" $!~%..{].^     ",
" /...$(_$%:     ",
"  +)<   .[      ",
"        .}      ",
"        %       ",
"       =|       ",
"                ",
"                "};
